<svg width="1419" height="941" viewBox="0 0 1419 941" fill="none" xmlns="http://www.w3.org/2000/svg">
<line x1="420.095" y1="510.937" x2="537.456" y2="412.46" stroke="#98C379" stroke-width="34" stroke-linecap="round"/>
<line x1="24.765" y1="678.526" x2="71.3766" y2="634.79" stroke="#E6C07B" stroke-width="34" stroke-linecap="round"/>
<line x1="666.915" y1="381.848" x2="793.468" y2="275.657" stroke="#56B6C2" stroke-width="22" stroke-linecap="round"/>
<line x1="225.66" y1="546.253" x2="281.097" y2="499.735" stroke="#56B6C2" stroke-width="30" stroke-linecap="round"/>
<line x1="143.112" y1="450.234" x2="286.752" y2="329.706" stroke="#61AEEE" stroke-width="19" stroke-linecap="round"/>
<line x1="448.176" y1="90.6945" x2="499.178" y2="47.899" stroke="#C678DD" stroke-width="32" stroke-linecap="round"/>
<line x1="154.253" y1="250.933" x2="219.799" y2="195.933" stroke="#C678DD" stroke-width="26" stroke-linecap="round"/>
<line x1="279.437" y1="773.625" x2="436.533" y2="642.118" stroke="#56B6C2" stroke-width="7" stroke-linecap="round"/>
<line x1="1032.88" y1="311.326" x2="1123.43" y2="235.349" stroke="#E06C75" stroke-width="26" stroke-linecap="round"/>
<line x1="126.077" y1="903.288" x2="227.012" y2="822.963" stroke="#98C379" stroke-width="26" stroke-linecap="round"/>
<line x1="577.457" y1="559.349" x2="649.236" y2="499.119" stroke="#C678DD" stroke-width="40" stroke-linecap="round"/>
<line x1="388.088" y1="914.672" x2="611.9" y2="722.912" stroke="#C678DD" stroke-width="20" stroke-linecap="round"/>
<line x1="1292.51" y1="885.341" x2="1367.02" y2="822.821" stroke="#E6C07B" stroke-width="51" stroke-linecap="round"/>
<line x1="1259.47" y1="597.491" x2="1329.06" y2="539.09" stroke="#E06C75" stroke-width="40" stroke-linecap="round"/>
<line x1="382.028" y1="813.916" x2="427.365" y2="775.874" stroke="#98C379" stroke-width="33" stroke-linecap="round"/>
<line x1="978.034" y1="61.564" x2="1023.37" y2="23.5215" stroke="#98C379" stroke-width="33" stroke-linecap="round"/>
<line x1="615.963" y1="133.344" x2="732.571" y2="35.4988" stroke="#E6C07B" stroke-width="35" stroke-linecap="round"/>
<line x1="750.46" y1="684.093" x2="829.047" y2="618.15" stroke="#61AEEE" stroke-width="43" stroke-linecap="round"/>
<line x1="388.404" y1="303.203" x2="443.285" y2="257.152" stroke="#56B6C2" stroke-width="39" stroke-linecap="round"/>
<line x1="747.839" y1="229.162" x2="835.338" y2="155.742" stroke="#61AEEE" stroke-width="32" stroke-linecap="round"/>
<line x1="1019.88" y1="914.768" x2="1095.32" y2="851.47" stroke="#C678DD" stroke-width="36" stroke-linecap="round"/>
<line x1="978.234" y1="526.246" x2="1109.32" y2="416.253" stroke="#C678DD" stroke-width="35" stroke-linecap="round"/>
<line x1="1225.05" y1="188.068" x2="1370.6" y2="65.9347" stroke="#56B6C2" stroke-width="21" stroke-linecap="round"/>
<line x1="82.8809" y1="125.117" x2="167.255" y2="54.3195" stroke="#E6C07B" stroke-width="24" stroke-linecap="round"/>
<line x1="693.545" y1="912.498" x2="929.956" y2="722.906" stroke="#98C379" stroke-width="20" stroke-linecap="round"/>
<line x1="698.056" y1="588.407" x2="906.356" y2="413.622" stroke="#E06C75" stroke-width="12" stroke-linecap="round"/>
<line x1="12.6202" y1="789.093" x2="308.283" y2="533.809" stroke="#E06C75" stroke-width="12" stroke-linecap="round"/>
<line x1="838.851" y1="925.264" x2="1144.93" y2="668.434" stroke="#56B6C2" stroke-width="2" stroke-linecap="round"/>
<line x1="43.2559" y1="412.155" x2="350.709" y2="154.171" stroke="#E06C75" stroke-width="3" stroke-linecap="round"/>
<line x1="537.062" y1="333.763" x2="846.047" y2="74.4937" stroke="#56B6C2" stroke-linecap="round"/>
<line x1="342.101" y1="415.894" x2="606.605" y2="193.948" stroke="#98C379" stroke-linecap="round"/>
<line x1="24.1233" y1="592.004" x2="242.602" y2="408.679" stroke="#E6C07B" stroke-width="2" stroke-linecap="round"/>
<line x1="12.0641" y1="268.296" x2="255.852" y2="65.1632" stroke="#E6C07B" stroke-linecap="round"/>
<line x1="1195.2" y1="284.88" x2="1415.48" y2="100.042" stroke="#E6C07B" stroke-width="5" stroke-linecap="round"/>
<line x1="962.105" y1="647.783" x2="1263.51" y2="394.874" stroke="#E06C75" stroke-width="6" stroke-linecap="round"/>
<line x1="369.168" y1="220.656" x2="589.59" y2="32.4442" stroke="#E6C07B" stroke-width="2" stroke-linecap="round"/>
<line x1="1074.97" y1="623.668" x2="1405.42" y2="346.395" stroke="#C678DD" stroke-width="2" stroke-linecap="round"/>
<line x1="190.123" y1="915.705" x2="520.565" y2="638.432" stroke="#C678DD" stroke-width="2" stroke-linecap="round"/>
<line x1="229.867" y1="127.139" x2="375.72" y2="4.75346" stroke="#C678DD" stroke-width="4" stroke-linecap="round"/>
<line x1="24.3017" y1="893.743" x2="479.282" y2="526.923" stroke="#E6C07B" stroke-width="4" stroke-linecap="round"/>
<line x1="1164.64" y1="386.677" x2="1371.08" y2="213.453" stroke="#98C379" stroke-width="6" stroke-linecap="round"/>
<line x1="1095.11" y1="920.146" x2="1271.36" y2="770.44" stroke="#E6C07B" stroke-width="2" stroke-linecap="round"/>
<line x1="884.896" y1="499.391" x2="1206.28" y2="229.721" stroke="#E6C07B" stroke-width="5" stroke-linecap="round"/>
<line x1="587.185" y1="886.755" x2="764.684" y2="737.815" stroke="#E6C07B" stroke-width="3" stroke-linecap="round"/>
<line x1="953.575" y1="259.188" x2="1200.51" y2="51.9877" stroke="#E6C07B" stroke-linecap="round"/>
<line x1="607.834" y1="586.657" x2="931.028" y2="315.465" stroke="#E6C07B" stroke-width="2" stroke-linecap="round"/>
<line x1="840.534" y1="267.993" x2="1086.09" y2="61.9445" stroke="#E6C07B" stroke-width="13" stroke-linecap="round"/>
<line x1="1151.35" y1="766.34" x2="1379.17" y2="575.177" stroke="#61AEEE" stroke-width="8" stroke-linecap="round"/>
<line x1="1144.52" y1="831.461" x2="1274.37" y2="723.482" stroke="#98C379" stroke-width="8" stroke-linecap="round"/>
<line x1="1321.12" y1="769.705" x2="1409.59" y2="695.432" stroke="#C678DD" stroke-width="2" stroke-linecap="round"/>
</svg>
